<?xml version="1.0" encoding="utf-8"?>
<!-- Generator: Adobe Illustrator 16.2.0, SVG Export Plug-In . SVG Version: 6.00 Build 0)  -->
<!DOCTYPE svg PUBLIC "-//W3C//DTD SVG 1.1//EN" "http://www.w3.org/Graphics/SVG/1.1/DTD/svg11.dtd">
<svg version="1.1" id="dealer-button" xmlns="http://www.w3.org/2000/svg" xmlns:xlink="http://www.w3.org/1999/xlink" x="0px"
	 y="0px" width="27px" height="25px" viewBox="0 0 27 25" enable-background="new 0 0 27 25" xml:space="preserve">
<linearGradient id="bottom_1_" gradientUnits="userSpaceOnUse" x1="13.4995" y1="0.1309" x2="13.4995" y2="25.1871">
	<stop  offset="0" style="stop-color:#EFE8DB"/>
	<stop  offset="1" style="stop-color:#907C60"/>
</linearGradient>
<ellipse id="bottom" fill="url(#bottom_1_)" cx="13.5" cy="13" rx="13.5" ry="12"/>
<linearGradient id="middle_1_" gradientUnits="userSpaceOnUse" x1="13.5005" y1="23" x2="13.5005" y2="4.882813e-004">
	<stop  offset="0" style="stop-color:#B3A38D"/>
	<stop  offset="1" style="stop-color:#EFE8DB"/>
</linearGradient>
<ellipse id="middle" fill="url(#middle_1_)" cx="13.5" cy="11.5" rx="13.5" ry="11.5"/>
<linearGradient id="top_1_" gradientUnits="userSpaceOnUse" x1="13.4995" y1="0" x2="13.4995" y2="22.0005">
	<stop  offset="0" style="stop-color:#EFE8DB"/>
	<stop  offset="1" style="stop-color:#C6BE9A"/>
</linearGradient>
<ellipse id="top" fill="url(#top_1_)" cx="13.5" cy="11" rx="12.5" ry="11"/>
<g id="g-D-shadow" opacity="0.7">
	<path id="D-shadow" fill="#FFFFFF" d="M10,7c1,0,1.108,0,2.351,0c2.254,0,3.857,0.449,4.92,1.332C18.369,9.216,19,10.75,19,12.5
		c0,1.767-0.631,2.946-1.748,3.941C16.1,17.453,14.226,18,11.865,18C10.729,18,10,18,10,18l-1-1V8L10,7z M11,16
		c0.396,0.064,1.387,0,2,0c3,0,4.188-1.344,4.188-3.624C17.188,10.25,16,9,13,9c-0.812,0-1.587-0.079-2,0V16z"/>
</g>
<g id="g-D">
	<path id="D" fill="#3B2C19" d="M10,6c1,0,1.108,0,2.351,0c2.254,0,3.857,0.449,4.92,1.332C18.369,8.216,19,9.75,19,11.5
		c0,1.767-0.631,2.946-1.748,3.941C16.1,16.453,14.226,17,11.865,17C10.729,17,10,17,10,17l-1-1V7L10,6z M11,15
		c0.396,0.064,1.387,0,2,0c3,0,4.188-1.344,4.188-3.624C17.188,9.25,16,8,13,8c-0.812,0-1.587-0.079-2,0V15z"/>
</g>
</svg>
