<svg xmlns="http://www.w3.org/2000/svg" width="59" height="82" style="enable-background:new 0 0 59 82" xml:space="preserve"><linearGradient id="a" gradientUnits="userSpaceOnUse" x1="29.5" y1="82" x2="29.5" y2="0"><stop offset="0" style="stop-color:#050f07"/><stop offset=".515" style="stop-color:#163d1f"/><stop offset="1" style="stop-color:#030b05"/></linearGradient><path style="fill-rule:evenodd;clip-rule:evenodd;fill:url(#a)" d="M5.2 0h48.6C56.7 0 59 2.4 59 5.3v71.4c0 2.9-2.3 5.3-5.2 5.3H5.2C2.3 82 0 79.6 0 76.7V5.3C0 2.4 2.3 0 5.2 0z"/><path style="fill-rule:evenodd;clip-rule:evenodd;fill:#d3c790" d="M5.4 78c-.8 0-1.4-.7-1.4-1.5v-71C4 4.7 4.6 4 5.4 4h48.2c.8 0 1.4.7 1.4 1.5v71c0 .8-.6 1.5-1.4 1.5H5.4z"/><linearGradient id="b" gradientUnits="userSpaceOnUse" x1="29.5" y1="77" x2="29.5" y2="5"><stop offset="0" style="stop-color:#050f07"/><stop offset=".515" style="stop-color:#163d1f"/><stop offset="1" style="stop-color:#030b05"/></linearGradient><path style="fill-rule:evenodd;clip-rule:evenodd;fill:url(#b)" d="M5.4 77c-.2 0-.4-.2-.4-.5v-71c0-.3.2-.5.4-.5h48.2c.2 0 .4.2.4.5v71c0 .3-.2.5-.4.5H5.4z"/><path style="opacity:.2;fill-rule:evenodd;clip-rule:evenodd;fill:#fff" d="m52.5 10.5-3.2-3.2L50.6 6h-1.3l-.6.6-.6-.6h-1.3l1.3 1.3-3.2 3.2-3.2-3.2L43 6h-1.3l-.6.6-.6-.6h-1.3l1.3 1.3-3.2 3.2-3.2-3.2L35.4 6h-1.3l-.6.6-.7-.6h-1.3l1.3 1.3-3.2 3.2-3.2-3.2L27.8 6h-1.3l-.6.6-.7-.6h-1.3l1.3 1.3-3.2 3.2-3.2-3.2L20.1 6h-1.3l-.6.6-.6-.6h-1.3l1.3 1.3-3.2 3.2-3.2-3.2L12.5 6h-1.3l-.6.6L10 6H8.7L10 7.3l-3.2 3.2-.6-.7v2.6l.6-.6L10 15l-3.2 3.2-.6-.6V20l.6-.6 3.2 3.2-3.2 3.2-.6-.6v2.6l.6-.8 3.2 3.2-3.2 3.2-.6-.6v2.5l.6-.6 3.2 3.2L6.8 41l-.6-.6V43l.6-.6 3.2 3.2-3.2 3.2-.6-.8v2.6l.6-.6 3.2 3.2-3.2 3.2-.6-.6v2.6l.6-.6L10 61l-3.2 3.2-.6-.6v2.6l.6-.6 3.2 3.2L6.8 72l-.6-.6V74l.6-.6L10 76h1.3l3.2-3.2 3.2 3.2H19l3.2-3.2 3.2 3.2h1.3l3.2-3.2 3.2 3.2h1.3l3.2-3.2 3.2 3.2h1.3l3.2-3.2 3.2 3.2h1.3l3.2-3.2.6.6v-2.6l-.6.6-3.2-3.2L53 65l.6.6V63l-.6.6-3.2-3.2 3.2-3.2.6.6v-2.6l-.6.6-3.2-3.2 3.2-3.2.6.6v-2l-.6.6-3.2-3.2 3.2-3.2.6.6v-2.6l-1.1.8-3.2-3.2 3.2-3.2.6.6v-2.5l-.6.6-3.2-3.2 3.2-3.2.6.6v-2.6l-.6.6-3.2-3.2 3.2-3.2.6.6v-2.6l-.6.6-3.2-3.2 3.2-3.2.6.6V9.8l-.6.7zM41.1 7.9l3.2 3.2-3.2 3.2-3.2-3.2 3.2-3.2zm0 59.8-3.2-3.2 3.2-3.2 3.2 3.2-3.2 3.2zm3.8-2.5 3.2 3.2-3.2 3.2-3.2-3.2 3.2-3.2zm-29.8-.7 3.2-3.2 3.2 3.2-3.2 3.2-3.2-3.2zm2.5 3.9-3.2 3.2-3.2-3.2 3.2-3.2 3.2 3.2zm.6-52.9 3.2 3.2-3.2 3.2-3.2-3.2 3.2-3.2zm-3.8 2.6-3.2-3.2 3.2-3.2 3.2 3.2-3.2 3.2zm22.3.6-3.2 3.2-3.2-3.2 3.2-3.2 3.2 3.2zm-2.6-3.8 3.2-3.2 3.2 3.2-3.2 3.2-3.2-3.2zm-.6 45.2-3.2-3.2 3.2-3.2 3.2 3.2-3.2 3.2zm3.8-2.6 3.2 3.2-3.2 3.2-3.2-3.2 3.2-3.2zm-14.6-.6 3.2-3.2 3.2 3.2-3.2 3.2-3.2-3.2zm2.5 3.8L22 63.9l-3.2-3.2 3.2-3.2 3.2 3.2zm.7-37.5 3.2 3.2-3.2 3.2-3.2-3.2 3.2-3.2zM22 25.7l-3.2-3.2 3.2-3.2 3.2 3.2-3.2 3.2zm4.5-3.2 3.2-3.2 3.2 3.2-3.2 3.2-3.2-3.2zm3.2 4.5 3.2 3.2-3.2 3.2-3.2-3.2 3.2-3.2zm-4.5 3.2L22 33.4l-3.2-3.2L22 27l3.2 3.2zm.7.6L29 34l-3.2 3.2-3.1-3.2 3.2-3.2zm3.8 3.8 3.2 3.2-3.2 3.2-3.2-3.2 3.2-3.2zm-4.5 3.2L22 41l-3.2-3.2 3.2-3.2 3.2 3.2zm.7.7 3.2 3.2-3.2 3.2-3.2-3.2 3.2-3.2zm3.8 3.8 3.2 3.2-3.2 3.2-3.2-3.2 3.2-3.2zm-4.5 3.2L22 48.6l-3.2-3.2 3.2-3.2 3.2 3.3zm.7.6 3.2 3.2-3.2 3.2-3.2-3.2 3.2-3.2zm3.8 3.8 3.2 3.2-3.2 3.2-3.2-3.2 3.2-3.2zm-4.5 3.2L22 56.3l-3.2-3.2 3.2-3.2 3.2 3.2zm4.5 4.4 3.2 3.2-3.2 3.2-3.2-3.2 3.2-3.2zm4.4-4.4 3.2-3.2 3.2 3.2-3.2 3.2-3.2-3.2zm-.6-.6-3.2-3.2 3.2-3.2 3.2 3.2-3.2 3.2zm.6-7 3.2-3.2 3.2 3.2-3.2 3.2-3.2-3.2zm-.6-.7-3.2-3.2 3.2-3.2 3.2 3.2-3.2 3.2zm.6-7 3.2-3.2 3.2 3.2-3.2 3.2-3.2-3.2zm-.6-.6L30.3 34l3.2-3.2 3.2 3.2-3.2 3.2zm.6-7 3.2-3.2 3.2 3.2-3.2 3.2-3.2-3.2zm-.6-.7-3.2-3.2 3.2-3.2 3.2 3.2-3.2 3.2zm.6-7 3.2-3.2 3.2 3.2-3.2 3.2-3.2-3.2zm-4.4-4.4-3.2-3.2 3.2-3.2 3.2 3.2-3.2 3.2zm-.7.6-3.2 3.2-3.2-3.2 3.2-3.2 3.2 3.2zm-7-.6-3.2-3.2 3.2-3.2 3.2 3.2-3.2 3.2zm-4.4 4.4-3.2 3.2-3.2-3.2 3.2-3.2 3.2 3.2zm.6.7 3.2 3.2-3.2 3.2-3.2-3.2 3.2-3.2zm-.6 7-3.2 3.2-3.2-3.2 3.2-3.2 3.2 3.2zm.6.6 3.2 3.2-3.2 3.2-3.1-3.2 3.1-3.2zm-.6 7L14.4 41l-3.2-3.2 3.2-3.2 3.2 3.2zm.6.7 3.2 3.2-3.2 3.2-3.2-3.2 3.2-3.2zm-.6 7-3.2 3.2-3.2-3.2 3.2-3.2 3.2 3.2zm.6.6 3.2 3.2-3.2 3.2-3.2-3.2 3.2-3.2zm-.6 7-3.2 3.2-3.2-3.2 3.2-3.2 3.2 3.2zm.6.6 3.2 3.2-3.2 3.2-3.2-3.2 3.2-3.2zm-.6 7-3.2 3.2-3.2-3.2 3.2-3.2 3.2 3.2zm4.4 4.5 3.2 3.2-3.2 3.1-3.2-3.2 3.2-3.1zm.7-.7 3.2-3.2 3.2 3.2-3.2 3.2-3.2-3.2zm7 .7 3.2 3.2-3.2 3.2-3.2-3.2 3.2-3.2zm.6-.7 3.2-3.2 3.2 3.2-3.2 3.2-3.2-3.2zm7 .7 3.2 3.2-3.2 3.2-3.2-3.2 3.2-3.2zm4.4-4.5 3.2-3.2 3.2 3.2-3.2 3.2-3.2-3.2zm-.6-.6-3.2-3.2 3.2-3.2 3.2 3.2-3.2 3.2zm.6-7 3.2-3.2 3.2 3.2-3.2 3.2-3.2-3.2zm-.6-.6-3.2-3.2 3.2-3.2 3.2 3.2-3.2 3.2zm.6-7 3.2-3.2 3.2 3.2-3.2 3.2-3.2-3.2zm-.6-.7-3.2-3.2 3.2-3.2 3.2 3.2-3.2 3.2zm.6-7 3.2-3.2 3.2 3.2-3.2 3.2-3.2-3.2zm-.6-.6L37.9 34l3.2-3.2 3.2 3.2-3.2 3.2zm.6-7 3.2-3.2 3.2 3.2-3.2 3.2-3.2-3.2zm-.6-.7-3.2-3.2 3.2-3.2 3.2 3.2-3.2 3.2zm.6-7 3.2-3.2 3.2 3.2-3.2 3.2-3.2-3.2zm-.6-.6-3.2-3.2 3.2-3.2 3.2 3.2-3.2 3.2zm.6-7 3.2-3.2 3.2 3.2-3.2 3.2-3.2-3.2zm-8.2-7 3.2 3.2-3.2 3.2-3.2-3.2 3.2-3.2zm-7.6 0 3.2 3.2-3.2 3.2-3.2-3.2 3.2-3.2zm-7.7 0 3.2 3.2-3.2 3.2-3.2-3.2 3.2-3.2zM7.4 11.1l3.2-3.2 3.2 3.2-3.2 3.2-3.2-3.2zm0 7.6 3.2-3.2 3.2 3.2-3.2 3.2-3.2-3.2zm0 7.7 3.2-3.2 3.2 3.2-3.2 3.2-3.2-3.2zm0 7.6 3.2-3.2 3.2 3.2-3.2 3.2L7.4 34zm0 7.6 3.2-3.2 3.2 3.2-3.2 3.2-3.2-3.2zm0 7.7 3.2-3.2 3.2 3.2-3.2 3.2-3.2-3.2zm0 7.6 3.2-3.2 3.2 3.2-3.2 3.2-3.2-3.2zm0 7.6 3.2-3.2 3.2 3.2-3.2 3.2-3.2-3.2zm3.2 10.9-3.2-3.2 3.2-3.2 3.2 3.2-3.2 3.2zm7.6 0L15 72.2l3.2-3.2 3.2 3.2-3.2 3.2zm7.7 0-3.2-3.2 3.2-3.2 3.2 3.2-3.2 3.2zm7.6 0-3.2-3.2 3.2-3.2 3.2 3.2-3.2 3.2zm7.6 0-3.2-3.2 3.2-3.2 3.2 3.2-3.2 3.2zm10.8-3.2-3.2 3.2-3.2-3.2 3.2-3.2 3.2 3.2zm0-7.7-3.2 3.2-3.2-3.2 3.2-3.2 3.2 3.2zm0-7.6-3.2 3.2-3.2-3.2 3.2-3.2 3.2 3.2zm0-7.6-3.2 3.2-3.2-3.2 3.2-3.2 3.2 3.2zm0-7.7-3.2 3.2-3.2-3.2 3.2-3.2 3.2 3.2zm0-7.6-3.2 3.2-3.2-3.2 3.2-3.2 3.2 3.2zm0-7.6-3.2 3.2-3.2-3.2 3.2-3.2 3.2 3.2zm0-7.7-3.2 3.2-3.2-3.2 3.2-3.2 3.2 3.2zm-3.2-4.4-3.2-3.2 3.2-3.2 3.2 3.2-3.2 3.2z"/><linearGradient id="c" gradientUnits="userSpaceOnUse" x1="29.667" y1="27.802" x2="29.667" y2="52.512"><stop offset="0" style="stop-color:#d6b543"/><stop offset=".553" style="stop-color:#fff"/><stop offset=".59" style="stop-color:#79664b"/><stop offset=".995" style="stop-color:#ffdb45"/></linearGradient><path style="fill:url(#c)" d="M37.7 35.7c-1.6 0-3 1.4-3.7 1.7 1.1-1.6 2.5-3.2 2.5-5.3 0-3.1-2.9-4.9-6.5-4.9s-6.7 1.1-6.7 4.8c0 2.1 1.6 3.7 2.7 5.3-.9-.3-2.1-1.7-4.3-1.7-3.2 0-4.8 2.9-4.8 6.5s2.6 6.5 5.9 6.5c2.4 0 4.8-1.9 5.9-4.4V47c0 3.2-3.2 5.3-3.2 5.3h8.6s-3.2-2.1-3.2-5.3v-2.8c1 2.5 3.4 4.4 5.9 4.4 3.2 0 5.9-2.9 5.9-6.5-.2-3.5-1.3-6.4-5-6.4z"/></svg>