<?xml version="1.0" encoding="utf-8"?>
<!-- Generator: Adobe Illustrator 22.0.1, SVG Export Plug-In . SVG Version: 6.00 Build 0)  -->
<svg version="1.1" id="Layer_1" xmlns="http://www.w3.org/2000/svg" xmlns:xlink="http://www.w3.org/1999/xlink" x="0px" y="0px"
	 width="343.6px" height="177.7px" viewBox="0 0 343.6 177.7" style="enable-background:new 0 0 343.6 177.7;" xml:space="preserve"
	>
<g id="felts_6_">
	
		<radialGradient id="_x30_4_1_" cx="622.8109" cy="472.454" r="205.7822" gradientTransform="matrix(0.8348 0 0 0.4959 -348.114 -145.4225)" gradientUnits="userSpaceOnUse">
		<stop  offset="0" style="stop-color:#6D6442"/>
		<stop  offset="1" style="stop-color:#413A26"/>
	</radialGradient>
	<path id="_x30_4_6_" style="fill:url(#_x30_4_1_);" d="M88.2,177.7h167.1c48.7,0,88.2-38.3,88.2-88.9c0-50.6-39.2-88.9-82-88.9
		c-22.7,0-34.5,1.9-50.2,3.8c-14.1,1.7-22,3.3-39.6,3.5c-17.6-0.2-31-1.8-45.1-3.5C111,1.9,104.7,0,82,0C39.2,0,0,38.3,0,88.9
		C0,139.4,39.6,177.7,88.2,177.7z"/>
	
		<radialGradient id="_x30_3_1_" cx="622.8109" cy="472.454" r="205.7822" gradientTransform="matrix(0.8348 0 0 0.4959 -348.114 -145.4225)" gradientUnits="userSpaceOnUse">
		<stop  offset="0" style="stop-color:#268CA6"/>
		<stop  offset="1" style="stop-color:#166384"/>
	</radialGradient>
	<path id="_x30_3_7_" style="fill:url(#_x30_3_1_);" d="M88.2,177.7h167.1c48.7,0,88.2-38.3,88.2-88.9c0-50.6-39.2-88.9-82-88.9
		c-22.7,0-34.5,1.9-50.2,3.8c-14.1,1.7-22,3.3-39.6,3.5c-17.6-0.2-31-1.8-45.1-3.5C111,1.9,104.7,0,82,0C39.2,0,0,38.3,0,88.9
		C0,139.4,39.6,177.7,88.2,177.7z"/>
	
		<radialGradient id="_x30_2_1_" cx="622.8109" cy="472.454" r="205.7822" gradientTransform="matrix(0.8348 0 0 0.4959 -348.114 -145.4225)" gradientUnits="userSpaceOnUse">
		<stop  offset="0" style="stop-color:#A86060"/>
		<stop  offset="1" style="stop-color:#843838"/>
	</radialGradient>
	<path id="_x30_2_7_" style="fill:url(#_x30_2_1_);" d="M88.2,177.7h167.1c48.7,0,88.2-38.3,88.2-88.9c0-50.6-39.2-88.9-82-88.9
		c-22.7,0-34.5,1.9-50.2,3.8c-14.1,1.7-22,3.3-39.6,3.5c-17.6-0.2-31-1.8-45.1-3.5C111,1.9,104.7,0,82,0C39.2,0,0,38.3,0,88.9
		C0,139.4,39.6,177.7,88.2,177.7z"/>
	
		<radialGradient id="_x30_1_1_" cx="622.8109" cy="472.454" r="205.7822" gradientTransform="matrix(0.8348 0 0 0.4959 -348.114 -145.4225)" gradientUnits="userSpaceOnUse">
		<stop  offset="0" style="stop-color:#4E4E4E"/>
		<stop  offset="1" style="stop-color:#2D2D2D"/>
	</radialGradient>
	<path id="_x30_1_7_" style="fill:url(#_x30_1_1_);" d="M88.2,177.7h167.1c48.7,0,88.2-38.3,88.2-88.9c0-50.6-39.2-88.9-82-88.9
		c-22.7,0-34.5,1.9-50.2,3.8c-14.1,1.7-22,3.3-39.6,3.5c-17.6-0.2-31-1.8-45.1-3.5C111,1.9,104.7,0,82,0C39.2,0,0,38.3,0,88.9
		C0,139.4,39.6,177.7,88.2,177.7z"/>
	
		<radialGradient id="base_1_" cx="622.8109" cy="472.454" r="162.5246" gradientTransform="matrix(0.8348 0 0 0.8683 -348.114 -321.3881)" gradientUnits="userSpaceOnUse">
		<stop  offset="0" style="stop-color:#669CA2"/>
		<stop  offset="1" style="stop-color:#121C2E"/>
	</radialGradient>
	<path id="base_6_" style="fill:url(#base_1_);" d="M88.2,177.7h167.1c48.7,0,88.2-38.3,88.2-88.9c0-50.6-39.2-88.9-82-88.9
		c-22.7,0-34.5,1.9-50.2,3.8c-14.1,1.7-22,3.3-39.6,3.5c-17.6-0.2-31-1.8-45.1-3.5C111,1.9,104.7,0,82,0C39.2,0,0,38.3,0,88.9
		C0,139.4,39.6,177.7,88.2,177.7z"/>
</g>
</svg>
